inDegrees=yes
name=ik_Xsens_quaternion
DataType=double
version=3
OpenSimVersion=4.4-2022-07-23-0e9fedc
endheader
time	pelvis_tilt	pelvis_list	pelvis_rotation	pelvis_tx	pelvis_ty	pelvis_tz	hip_flexion_r	hip_adduction_r	hip_rotation_r	knee_angle_r	knee_angle_r_beta	ankle_angle_r	subtalar_angle_r	mtp_angle_r	hip_flexion_l	hip_adduction_l	hip_rotation_l	knee_angle_l	knee_angle_l_beta	ankle_angle_l	subtalar_angle_l	mtp_angle_l	lumbar_extension	lumbar_bending	lumbar_rotation	arm_flex_r	arm_add_r	arm_rot_r	elbow_flex_r	pro_sup_r	wrist_flex_r	wrist_dev_r	arm_flex_l	arm_add_l	arm_rot_l	elbow_flex_l	pro_sup_l	wrist_flex_l	wrist_dev_l
28.35	0	0	0	0	0.93	0	0	0	0	0	0	0	0	0	0	0	0	0	0	0	0	0	0	0	0	0	0	0	0	0	0	0	-89.99796968730931	-60.72278500891294	89.99818059997878	0.00930370689403932	44.99991754119154	0	0
28.36666666666667	0	0	0	0	0.93	0	0	0	0	2.104714535737113e-38	0	0	0	0	0	0	0	2.104714535737113e-38	0	0	0	0	0	0	0	0	0	0	9.163513293776317e-40	9.163513293776317e-40	0	0	-89.99779163426749	-60.19316258747629	89.99804235433633	0.009141662583950992	44.99991801543573	0	0
28.38333333333333	0	0	0	0	0.93	0	0	0	0	1.312349832769401e-38	-1.580941485645277e-40	0	0	0	0	0	0	1.312349832769401e-38	-1.580941485645277e-40	0	0	0	0	0	0	0	0	0	8.418858142948453e-38	0	0	0	-89.99757468501075	-59.71234757753066	89.99788393089243	0.008732186516362917	44.99991846915225	0	0
28.4	0	0	0	0	0.93	0	0	0	0	0	0	0	0	0	0	0	0	0	0	0	0	0	0	0	0	0	0	0	0	0	0	0	-89.99731579295018	-59.30365983678499	89.99771066052728	0.008178500173727002	44.99991890692639	0	0
28.41666666666667	0	0	0	0	0.93	0	-6.531594653751378e-36	0	0	4.113932814975742e-38	-9.183549615799121e-40	1.077613842297402e-35	0	0	-6.531594653751378e-36	0	0	4.113932814975742e-38	-9.183549615799121e-40	1.077613842297402e-35	0	0	0	0	0	0	4.443533358014246e-38	0	4.113932814975742e-38	4.113932689524979e-38	0	2.877285489556507e-36	-89.99700298004824	-58.92515586570645	89.99751583255234	0.007703176376114741	44.99991933022405	0	2.877285489556507e-36
28.43333333333333	0	0	0	0	0.93	0	0	0	0	0	0	0	0	0	0	0	0	0	0	0	0	0	0	0	0	0	0	0	0	0	0	0	-89.99661418203425	-58.51400713189492	89.99728802907609	0.007450965032544099	44.99991966242354	0	0
28.45	0	0	0	0	0.93	0	0	0	0	0	-2.204051907791789e-39	0	0	0	0	0	0	0	-2.204051907791789e-39	0	0	0	0	0	0	0	8.752154024742572e-38	0	0	3.368674120530664e-39	0	0	-89.9960955060057	-58.00141719459614	89.99700418576816	0.007327718050288944	44.99991998330393	0	0
28.46666666666667	0	3.448364295351686e-34	3.448364295351686e-34	0	0.93	0	0	1.077613842297402e-35	0	0	0	0	0	0	0	1.077613842297402e-35	0	0	0	0	0	0	0	3.448364295351686e-34	3.448364295351686e-34	0	-3.056565734219578e-36	0	0	0	0	0	-89.99538343019084	-57.4555813399025	89.99665318355368	0.007187217862956775	44.99992029290293	0	0
28.48333333333333	5.17254644302753e-34	0	0	0	0.93	0	-4.943971048849043e-37	1.616527447323174e-35	0	0	0	0	0	0	-4.943971048849043e-37	1.616527447323174e-35	0	0	0	0	0	0	5.17254644302753e-34	0	0	0	2.152804112172743e-38	0	0	1.105445019637091e-38	0	-2.390526971374491e-36	-89.99436421277137	-56.95105446943134	89.99621617273056	0.006971963795656219	44.99992058890936	0	-2.390526971374491e-36
28.5	-3.875534437629658e-26	1.965494156810599e-25	-3.069541685903304e-25	6.775493154423958e-27	0.93	1.386793105724951e-24	-4.032149351370607e-21	1.612064934676623e-20	6.214560818971575e-12	4.340799228437613e-06	7.576123037032572e-08	-2.515435744555835e-15	-2.535728242510567e-14	-7.56080277253976e-17	-1.150308475144048e-11	1.315073926323968e-11	1.797387694154881e-11	4.337161389243747e-06	7.569774800343041e-08	1.441580212750173e-14	1.99551946984243e-16	6.85297540605396e-17	-1.75052508711011e-12	1.186725449872886e-12	-3.954746752484464e-14	-1.57992093225355e-15	-4.220682008983357e-15	9.448561751530217e-15	4.332145257857422e-06	4.343552092287444e-06	5.244745125685977e-17	-1.612353488088844e-16	-89.99267317232449	-56.53992696347425	89.99563841831771	0.006722358534841819	44.9999208741088	1.452008697030619e-16	1.098029307308818e-16
28.51666666666667	0	0	0	0	0.93	0	0	0	0	1.213848026908782e-38	7.555655425174054e-41	0	0	0	0	0	0	0	0	0	0	0	0	0	0	0	0	0	0	0	0	0	-89.98929998437104	-56.18611172206266	89.99481790598223	0.006449378229411006	44.99992102987199	0	0
